# xmcd
#
# Track frame offsets:
#	150
#	34738
#	65412
#	98147
#	133928
#	160188
#	183930
#	210407
#	243756
#	268088
#	291092
#	311735
#	327208
#
# Disc length: 4693 seconds
#
# Revision: 1
# Processed by: cddbd v1.5.2PL0 Copyright (c) Steve Scherf et al.
# Submitted via: EasyCDDAExtractor 15.2.5.1
#
DISCID=b812530d
DTITLE=Various Artist - Royal House Vol.02 CD1
DYEAR=2005
DGENRE=House
TTITLE0=Axwell and Sebastian Ingrosso  - Together
TTITLE1=Roman Flügel  - Geht's Noch?
TTITLE2=Basement Jaxx  - Oh My Gosh
TTITLE3=The Drill  - The Drill
TTITLE4=Alyoa  - It's Been Too Long
TTITLE5=Maxim  - I Don't Care
TTITLE6=AC/OT  - Real Deejays
TTITLE7=M. Tanzt Mit MC Hindua  - Tanz Mit
TTITLE8=Mike Litt  - Hard Times
TTITLE9=Narcotic Thrust  - When The Dawn Breaks
TTITLE10=DBN  - Rocket Powder
TTITLE11=DJ Tyson Vs Toxxic Twins  - Scum
TTITLE12=Playmaker  - Feel The Rythm
EXTD=
EXTT0=
EXTT1=
EXTT2=
EXTT3=
EXTT4=
EXTT5=
EXTT6=
EXTT7=
EXTT8=
EXTT9=
EXTT10=
EXTT11=
EXTT12=
PLAYORDER=
